<?xml version="1.0" encoding="UTF-8"?>
<!DOCTYPE svg PUBLIC "-//W3C//DTD SVG 1.1//EN" "http://www.w3.org/Graphics/SVG/1.1/DTD/svg11.dtd">
<svg xmlns="http://www.w3.org/2000/svg" version="1.1" width="126px" height="150px" style="shape-rendering:geometricPrecision; text-rendering:geometricPrecision; image-rendering:optimizeQuality; fill-rule:evenodd; clip-rule:evenodd" xmlns:xlink="http://www.w3.org/1999/xlink">
<g><path style="opacity:0.996" fill="#000000" d="M 98.5,23.5 C 94.2555,26.0722 90.5888,29.4055 87.5,33.5C 88.8333,36.1667 90.1667,38.8333 91.5,41.5C 82.3066,40.3627 77.9733,44.3627 78.5,53.5C 72.6921,55.952 66.6921,57.452 60.5,58C 62.5,55.6667 64.5,53.3333 66.5,51C 66.1667,50.8333 65.8333,50.6667 65.5,50.5C 59.4907,54.0066 53.1574,56.6733 46.5,58.5C 46.7266,53.3082 45.8933,48.3082 44,43.5C 40.6064,42.5442 37.1064,42.2108 33.5,42.5C 34.1427,39.0473 35.4761,35.8806 37.5,33C 34.3865,29.6084 31.0531,26.4418 27.5,23.5C 42.9568,9.80977 60.6235,5.97644 80.5,12C 87.9749,13.6627 93.9749,17.496 98.5,23.5 Z"/></g>
<g><path style="opacity:0.999" fill="#026098" d="M 27.5,23.5 C 31.0531,26.4418 34.3865,29.6084 37.5,33C 35.4761,35.8806 34.1427,39.0473 33.5,42.5C 37.1064,42.2108 40.6064,42.5442 44,43.5C 45.8933,48.3082 46.7266,53.3082 46.5,58.5C 46.5,59.8333 46.5,61.1667 46.5,62.5C 42.3142,63.0149 39.6475,65.3482 38.5,69.5C 37.1667,69.5 35.8333,69.5 34.5,69.5C 34.2085,65.7927 33.2085,62.2927 31.5,59C 28.7644,58.5783 26.0977,58.5783 23.5,59C 24.6759,56.3145 26.3425,53.9812 28.5,52C 24.9269,47.2282 20.5935,43.3949 15.5,40.5C 15.9136,33.2653 17.4136,26.2653 20,19.5C 22.4745,20.9858 24.9745,22.3192 27.5,23.5 Z"/></g>
<g><path style="opacity:0.999" fill="#016098" d="M 108.5,41.5 C 104.101,44.3893 100.101,47.8893 96.5,52C 98.0316,54.0344 99.3649,56.2011 100.5,58.5C 98.2192,59.1847 95.8859,59.3513 93.5,59C 91.3619,62.1799 90.0286,65.6799 89.5,69.5C 88.5,69.5 87.5,69.5 86.5,69.5C 85.0375,65.2644 82.0375,63.2644 77.5,63.5C 77.2529,60.0613 77.5863,56.728 78.5,53.5C 77.9733,44.3627 82.3066,40.3627 91.5,41.5C 90.1667,38.8333 88.8333,36.1667 87.5,33.5C 90.5888,29.4055 94.2555,26.0722 98.5,23.5C 100.473,22.5133 102.473,21.5133 104.5,20.5C 104.833,20.8333 105.167,21.1667 105.5,21.5C 108.009,28.0699 109.009,34.7366 108.5,41.5 Z"/></g>
<g><path style="opacity:0.999" fill="#019ec1" d="M -0.5,36.5 C 4.91291,37.5199 10.2462,38.8532 15.5,40.5C 20.5935,43.3949 24.9269,47.2282 28.5,52C 26.3425,53.9812 24.6759,56.3145 23.5,59C 26.0977,58.5783 28.7644,58.5783 31.5,59C 33.2085,62.2927 34.2085,65.7927 34.5,69.5C 30.8183,69.3347 27.1516,69.5014 23.5,70C 22.6198,71.3561 22.2865,72.8561 22.5,74.5C 17.0818,73.6608 15.2485,70.6608 17,65.5C 14.6194,66.435 12.1194,66.7683 9.5,66.5C 4.00307,60.8396 0.669738,54.1729 -0.5,46.5C -0.5,43.1667 -0.5,39.8333 -0.5,36.5 Z"/></g>
<g><path style="opacity:1" fill="#019ec1" d="M 125.5,37.5 C 125.5,39.8333 125.5,42.1667 125.5,44.5C 124.606,52.9916 121.272,60.4916 115.5,67C 114.552,67.4828 113.552,67.6495 112.5,67.5C 106.69,65.4101 105.357,66.9101 108.5,72C 106.593,73.122 104.593,73.9553 102.5,74.5C 101.549,73.0813 101.216,71.4147 101.5,69.5C 97.5,69.5 93.5,69.5 89.5,69.5C 90.0286,65.6799 91.3619,62.1799 93.5,59C 95.8859,59.3513 98.2192,59.1847 100.5,58.5C 99.3649,56.2011 98.0316,54.0344 96.5,52C 100.101,47.8893 104.101,44.3893 108.5,41.5C 114.049,39.6962 119.716,38.3629 125.5,37.5 Z"/></g>
<g><path style="opacity:1" fill="#d8d8d8" d="M 78.5,53.5 C 77.5863,56.728 77.2529,60.0613 77.5,63.5C 75.1432,63.6633 72.8098,63.4966 70.5,63C 68.0667,60.8668 65.2334,59.7002 62,59.5C 57.5772,61.565 52.9106,62.8983 48,63.5C 47.6174,62.944 47.1174,62.6107 46.5,62.5C 46.5,61.1667 46.5,59.8333 46.5,58.5C 53.1574,56.6733 59.4907,54.0066 65.5,50.5C 65.8333,50.6667 66.1667,50.8333 66.5,51C 64.5,53.3333 62.5,55.6667 60.5,58C 66.6921,57.452 72.6921,55.952 78.5,53.5 Z"/></g>
<g><path style="opacity:0.998" fill="#eec557" d="M 77.5,63.5 C 82.0375,63.2644 85.0375,65.2644 86.5,69.5C 70.5,69.5 54.5,69.5 38.5,69.5C 39.6475,65.3482 42.3142,63.0149 46.5,62.5C 47.1174,62.6107 47.6174,62.944 48,63.5C 52.9106,62.8983 57.5772,61.565 62,59.5C 65.2334,59.7002 68.0667,60.8668 70.5,63C 72.8098,63.4966 75.1432,63.6633 77.5,63.5 Z"/></g>
<g><path style="opacity:0.984" fill="#000000" d="M 22.5,74.5 C 22.5,75.8333 22.5,77.1667 22.5,78.5C 21.4036,80.1032 20.0703,81.6032 18.5,83C 19.7528,87.1731 21.0862,91.3398 22.5,95.5C 24.8333,96.8333 27.1667,98.1667 29.5,99.5C 30.5178,98.8075 31.5178,98.1408 32.5,97.5C 32.6082,104.524 33.1082,111.524 34,118.5C 34.9862,121.806 36.4862,124.806 38.5,127.5C 35.3567,126.866 32.8567,125.2 31,122.5C 30.6667,123.167 30.3333,123.833 30,124.5C 28.6667,123.167 27.3333,121.833 26,120.5C 22.5242,113.401 19.8576,106.068 18,98.5C 14.2715,100.582 10.2715,101.915 6,102.5C 4.94123,102.37 4.1079,101.87 3.5,101C 6.90939,98.9661 9.90939,96.4661 12.5,93.5C 12.1667,93.1667 11.8333,92.8333 11.5,92.5C 8.97109,93.9597 6.30442,94.4597 3.5,94C 10.3603,86.9315 14.027,78.4315 14.5,68.5C 12.4727,68.6621 10.4727,68.4955 8.5,68C 9.05596,67.6174 9.38929,67.1174 9.5,66.5C 12.1194,66.7683 14.6194,66.435 17,65.5C 15.2485,70.6608 17.0818,73.6608 22.5,74.5 Z"/></g>
<g><path style="opacity:0.995" fill="#000000" d="M 112.5,67.5 C 114.532,72.4206 116.032,77.4206 117,82.5C 113.69,80.8536 111.023,78.5203 109,75.5C 112.919,92.0706 110.086,107.404 100.5,121.5C 99.7492,120.624 99.2492,119.624 99,118.5C 97.7695,121.732 95.7695,124.399 93,126.5C 92.6667,125.167 92.3333,123.833 92,122.5C 89.8943,125.118 87.3943,127.118 84.5,128.5C 86.9653,123.436 88.6319,118.103 89.5,112.5C 85.426,113.099 81.926,112.099 79,109.5C 76.8463,110.252 74.6797,110.419 72.5,110C 70.666,105.325 72.3327,103.492 77.5,104.5C 77.33,103.178 77.6634,102.011 78.5,101C 83.0756,100.728 87.4089,99.8951 91.5,98.5C 92.4584,98.9528 93.2917,99.6195 94,100.5C 96.8349,99.0836 99.5015,97.417 102,95.5C 103.095,91.6151 104.261,87.7817 105.5,84C 104.614,82.3853 103.614,80.8853 102.5,79.5C 102.5,77.8333 102.5,76.1667 102.5,74.5C 104.593,73.9553 106.593,73.122 108.5,72C 105.357,66.9101 106.69,65.4101 112.5,67.5 Z"/></g>
<g><path style="opacity:1" fill="#e13c35" d="M 34.5,69.5 C 35.8333,69.5 37.1667,69.5 38.5,69.5C 54.5,69.5 70.5,69.5 86.5,69.5C 87.5,69.5 88.5,69.5 89.5,69.5C 93.5,69.5 97.5,69.5 101.5,69.5C 101.216,71.4147 101.549,73.0813 102.5,74.5C 102.5,76.1667 102.5,77.8333 102.5,79.5C 100.867,86.8057 96.8666,92.4724 90.5,96.5C 79.6374,100.684 70.1374,98.6837 62,90.5C 53.8909,98.6984 44.3909,100.698 33.5,96.5C 27.2909,92.0868 23.6242,86.0868 22.5,78.5C 22.5,77.1667 22.5,75.8333 22.5,74.5C 22.2865,72.8561 22.6198,71.3561 23.5,70C 27.1516,69.5014 30.8183,69.3347 34.5,69.5 Z"/></g>
<g><path style="opacity:1" fill="#efc557" d="M 22.5,78.5 C 23.6242,86.0868 27.2909,92.0868 33.5,96.5C 32.8333,96.5 32.5,96.8333 32.5,97.5C 31.5178,98.1408 30.5178,98.8075 29.5,99.5C 27.1667,98.1667 24.8333,96.8333 22.5,95.5C 21.0862,91.3398 19.7528,87.1731 18.5,83C 20.0703,81.6032 21.4036,80.1032 22.5,78.5 Z"/></g>
<g><path style="opacity:1" fill="#eec458" d="M 102.5,79.5 C 103.614,80.8853 104.614,82.3853 105.5,84C 104.261,87.7817 103.095,91.6151 102,95.5C 99.5015,97.417 96.8349,99.0836 94,100.5C 93.2917,99.6195 92.4584,98.9528 91.5,98.5C 91.1667,97.8333 90.8333,97.1667 90.5,96.5C 96.8666,92.4724 100.867,86.8057 102.5,79.5 Z"/></g>
<g><path style="opacity:1" fill="#040202" d="M 47.5,83.5 C 47.1412,85.371 46.1412,86.871 44.5,88C 41.7795,88.6015 39.1128,88.4349 36.5,87.5C 35.962,85.8828 35.6287,84.2161 35.5,82.5C 39.7016,82.1832 43.7016,82.5166 47.5,83.5 Z"/></g>
<g><path style="opacity:1" fill="#fcfafa" d="M 76.5,83.5 C 76.8588,85.371 77.8588,86.871 79.5,88C 82.2205,88.6015 84.8872,88.4349 87.5,87.5C 81.4536,94.1498 75.2869,94.1498 69,87.5C 67.9914,85.9751 67.4914,84.3084 67.5,82.5C 70.6085,82.2641 73.6085,82.5975 76.5,83.5 Z"/></g>
<g><path style="opacity:1" fill="#fbfbfb" d="M 47.5,83.5 C 50.5184,83.3354 53.5184,83.502 56.5,84C 52.5058,91.9981 46.5058,93.9981 38.5,90C 37.6195,89.2917 36.9528,88.4584 36.5,87.5C 39.1128,88.4349 41.7795,88.6015 44.5,88C 46.1412,86.871 47.1412,85.371 47.5,83.5 Z"/></g>
<g><path style="opacity:1" fill="#010101" d="M 76.5,83.5 C 80.5546,83.1758 84.5546,83.5091 88.5,84.5C 87.8728,85.4168 87.5394,86.4168 87.5,87.5C 84.8872,88.4349 82.2205,88.6015 79.5,88C 77.8588,86.871 76.8588,85.371 76.5,83.5 Z"/></g>
<g><path style="opacity:0.999" fill="#dadada" d="M 90.5,96.5 C 90.8333,97.1667 91.1667,97.8333 91.5,98.5C 87.4089,99.8951 83.0756,100.728 78.5,101C 77.6634,102.011 77.33,103.178 77.5,104.5C 72.3327,103.492 70.666,105.325 72.5,110C 74.6797,110.419 76.8463,110.252 79,109.5C 81.926,112.099 85.426,113.099 89.5,112.5C 88.6319,118.103 86.9653,123.436 84.5,128.5C 78.3111,136.695 70.6445,143.028 61.5,147.5C 58.7163,146.608 56.0496,145.442 53.5,144C 48.1423,138.752 43.1423,133.252 38.5,127.5C 36.4862,124.806 34.9862,121.806 34,118.5C 33.1082,111.524 32.6082,104.524 32.5,97.5C 32.5,96.8333 32.8333,96.5 33.5,96.5C 44.3909,100.698 53.8909,98.6984 62,90.5C 70.1374,98.6837 79.6374,100.684 90.5,96.5 Z"/></g>
</svg>
