<svg version="1.1" xmlns="http://www.w3.org/2000/svg" xmlns:xlink="http://www.w3.org/1999/xlink" width="400.39702" height="77.3772" viewBox="0,0,400.39702,77.3772"><g transform="translate(-48.20311,-80.74393)"><g data-paper-data="{&quot;isPaintingLayer&quot;:true}" fill-rule="nonzero" stroke="none" stroke-linecap="butt" stroke-linejoin="miter" stroke-miterlimit="10" stroke-dasharray="" stroke-dashoffset="0" style="mix-blend-mode: normal"><path d="M71.99783,88.98491c0,0 -5.02631,19.66893 -15.07897,59.00682c0.58182,0.06465 2.10105,0.09698 4.55762,0.09698c4.16976,0 8.03244,-2.40812 11.58804,-7.22434c3.55561,-4.81623 6.41625,-11.34558 8.58191,-19.58814c3.00609,-11.63653 3.21621,-20.16995 0.63031,-25.60031c-0.35555,-0.74344 -0.80809,-1.58388 -1.35761,-2.52125c-1.61618,-2.61823 -4.58996,-4.00813 -8.92132,-4.16976zM63.80381,89.22733l-5.09099,0.58182c-1.26062,0 -1.79396,-0.7596 -1.60003,-2.27883l0.3879,-2.81216c0.16163,-1.03436 0.72725,-1.66466 1.69697,-1.89093c2.65053,-0.51718 6.41625,-0.77575 11.29713,-0.77575c6.78796,0 11.91126,1.82629 15.36991,5.47885c3.45862,3.65259 5.33341,8.9375 5.62432,15.85475c0.38789,9.4385 -1.697,19.60428 -6.25463,30.49737c-2.84449,6.75565 -6.17381,11.86277 -9.98802,15.32142c-4.23441,3.87882 -9.3577,5.81825 -15.36991,5.81825c-3.5556,0 -6.23848,-0.12929 -8.04859,-0.3879c-1.77781,-0.2586 -2.8768,-0.75959 -3.297,-1.50304c-0.42019,-0.77575 -0.43638,-1.92325 -0.04849,-3.44248z" fill="#f9f9f9" stroke-width="1"/><path d="M243.41003,113.838c-3.20005,-1.81014 -5.7536,-2.06875 -7.6607,-0.77579c-1.90709,1.26063 -3.73338,3.79803 -5.47884,7.61224c-2.97378,6.46471 -5.0425,12.83248 -6.20614,19.10326c-0.51718,2.77985 -0.72729,4.76774 -0.63031,5.96372c0.12929,1.16365 0.63031,1.98789 1.50304,2.47276c0.87273,0.48484 2.02022,0.14544 3.44247,-1.0182c1.45455,-1.16365 2.9576,-2.9253 4.50913,-5.28492c1.58388,-2.35962 3.11923,-5.46269 4.60612,-9.3092c1.51919,-3.87882 3.49096,-10.13345 5.91523,-18.76386zM244.91307,108.26207c0.35556,-1.51919 1.11515,-2.27883 2.27882,-2.27883l2.27883,-0.09698c1.19598,0 2.03638,0.32325 2.52125,0.96971c0.48484,0.64647 0.54949,1.51919 0.19393,2.6182l-11.87895,39.7096c2.03637,-1.48686 4.07279,-3.6687 6.10916,-6.54554c0.71111,-1.03436 1.53538,-1.26063 2.47276,-0.67877l2.37578,1.60003c1.03436,0.67877 1.19598,1.50304 0.48484,2.47275c-2.68287,3.20002 -5.17178,5.67278 -7.46676,7.41828c-2.29498,1.71312 -4.99401,2.94144 -8.09708,3.68489c-0.4202,0.09688 -0.80808,0.03221 -1.16364,-0.19396c-0.32325,-0.22627 -0.53333,-0.51718 -0.63031,-0.87276l-1.89094,-5.52734c-1.03436,1.48689 -2.32728,2.94145 -3.87882,4.3637c-1.51919,1.42225 -2.84447,2.13336 -3.97581,2.13336h-0.19393c-0.51718,0 -1.34142,-0.37171 -2.47276,-1.11515c-1.099,-0.77575 -1.97173,-1.55154 -2.61823,-2.32732c-0.61416,-0.77575 -1.05051,-1.32526 -1.30911,-1.64848c-0.22627,-0.32325 -0.48484,-0.7273 -0.77575,-1.21214c-0.29091,-0.51718 -0.50103,-1.0182 -0.63031,-1.50304c-0.12929,-0.48487 -0.24242,-1.05054 -0.3394,-1.69701c-0.19393,-1.13134 -0.16162,-2.79601 0.09698,-4.99401c0.71111,-5.39805 2.37578,-11.55569 4.99401,-18.47294c2.65053,-6.94958 5.23642,-11.60419 7.75768,-13.96382c2.52125,-2.39196 5.68896,-3.58791 9.50314,-3.58791c2.23034,0 4.3152,0.58182 6.25463,1.74546z" fill="#f9f9f9" stroke-width="1"/><path d="M206.84335,83.02274c0,0 -2.8768,11.29713 -8.63041,33.89135l1.50304,-2.52125c1.38991,-2.29498 2.97378,-4.26672 4.75159,-5.91523c1.77781,-1.68082 3.23236,-2.52125 4.3637,-2.52125h0.19393c0.51718,0 1.34142,0.3879 2.47276,1.16365c1.13134,0.74344 2.21419,1.76165 3.24854,3.05458c1.0667,1.26063 1.81014,2.56974 2.23034,3.92735c0.4202,1.35757 0.35556,4.12124 -0.19393,8.291c-0.51718,4.16976 -2.08486,9.7456 -4.70309,16.72749c-2.61823,6.94959 -5.18794,11.588 -7.70919,13.91532c-2.52125,2.29498 -5.70511,3.44248 -9.55163,3.44248c-2.23034,0 -4.33136,-0.59798 -6.30312,-1.79396c-0.51718,0.93738 -1.42225,1.40606 -2.71518,1.40606h-1.69701c-1.19598,0 -2.03637,-0.29091 -2.52125,-0.87273c-0.45254,-0.61416 -0.56567,-1.38991 -0.3394,-2.32728l18.18204,-69.96455c0.38789,-1.45455 1.37376,-2.18184 2.9576,-2.18184h2.27882c1.81014,0 2.53741,0.7596 2.18185,2.27883zM190.06738,149.1084c3.23236,1.84244 5.80209,2.13336 7.70918,0.87274c1.90709,-1.29296 3.73338,-3.86267 5.47885,-7.70919c2.97378,-6.43241 5.02631,-12.78401 6.15765,-19.0548c0.51718,-2.77982 0.72729,-4.75156 0.63031,-5.91523c-0.09698,-1.19598 -0.58182,-2.03637 -1.45455,-2.52125c-0.87273,-0.48484 -2.03638,-0.14544 -3.49097,1.0182c-1.45455,1.16365 -2.97378,2.92529 -4.55763,5.28492c-1.55154,2.35962 -3.10307,5.49504 -4.65461,9.40619c-1.51919,3.91116 -3.36164,9.82639 -5.52733,17.74569z" fill="#f9f9f9" stroke-width="1"/><path d="M156.43566,115.82658c0,-0.58182 -0.22626,-0.87274 -0.6788,-0.87274c-0.45254,0 -1.00202,0.30707 -1.64852,0.92123c-0.61416,0.61416 -1.47074,1.69697 -2.56974,3.24851c-1.32527,1.97177 -2.8768,4.37987 -4.65461,7.22434c-1.74546,2.81216 -3.95965,6.30309 -6.64253,10.47286c-4.94552,7.69303 -8.00009,12.59006 -9.16374,14.69111c-1.16365,2.06871 -1.79396,3.18387 -1.89094,3.34549c-0.09698,0.12932 -0.19396,0.24245 -0.29091,0.3394c-0.09698,0.09688 -0.19396,0.17764 -0.29091,0.24229c-0.09698,0.06465 -0.19396,0.12932 -0.29091,0.19396c-0.09698,0.03243 -0.19396,0.06477 -0.29091,0.09698c-0.06464,0.03243 -0.14547,0.04865 -0.24242,0.04865c-1.16365,0 -2.13336,0 -2.90914,0c-1.55154,0 -2.10106,-0.85657 -1.64852,-2.56973l12.02439,-45.2855c0.03234,-0.06464 0.06464,-0.21011 0.09698,-0.43638c0.06465,-0.22627 0.09698,-0.37171 0.09698,-0.43639c0.12929,-0.45253 0.21008,-0.69495 0.24242,-0.72729c0.03234,-0.06464 0.08083,-0.16163 0.14548,-0.29091c0.06465,-0.12928 0.11313,-0.21008 0.14547,-0.24242c0.06465,-0.03234 0.14547,-0.08083 0.24242,-0.14547c0.09698,-0.09695 0.19396,-0.16159 0.29091,-0.19393c0.19393,-0.06464 0.43639,-0.09698 0.72729,-0.09698h4.07279c0.84043,0 1.37375,0.19393 1.60002,0.58182c0.2586,0.38789 0.24242,1.14749 -0.04849,2.27883l-7.41827,25.01849l10.32742,-17.06689c2.00407,-3.32934 4.21822,-5.96372 6.64252,-7.90315c2.4566,-1.93942 4.47683,-2.90914 6.06071,-2.90914h2.08486c3.65258,0 4.78389,2.84446 3.39398,8.53342l-5.13944,18.61842l9.60012,-16.43657c2.03637,-3.5556 4.23441,-6.22229 6.59403,-8.0001c2.39196,-1.81011 4.42834,-2.71518 6.10916,-2.71518h2.08487c2.81216,0 4.13743,1.3576 3.9758,4.07278c-0.06465,1.099 -0.27476,2.58589 -0.63031,4.46064l-11.10316,40.48539c-0.19393,0.93738 -0.7273,1.40606 -1.60003,1.40606h-5.13948c-0.35556,0 -0.64646,-0.19393 -0.87273,-0.58182c-0.19393,-0.38789 -0.17778,-0.98587 0.04849,-1.79396l10.42436,-34.08528c0.48484,-1.7455 0.72729,-2.90914 0.72729,-3.49096c0,-0.58182 -0.25857,-0.87274 -0.77575,-0.87274c-0.48484,0 -1.26063,0.63031 -2.32729,1.89094c-1.0667,1.22828 -2.69902,3.6041 -4.89702,7.12736c-2.16569,3.49096 -4.42834,7.07887 -6.78796,10.76376c-2.32732,3.65256 -3.9435,6.20614 -4.84853,7.6607c-2.90914,4.68695 -5.10715,8.67893 -6.59404,11.97593c-0.38789,0.93738 -0.95356,1.40606 -1.697,1.40606h-5.0425c-0.80809,0 -1.0667,-0.79193 -0.77576,-2.37578l10.42436,-34.08528c0.48484,-1.7455 0.72729,-2.90914 0.72729,-3.49096z" fill="#f9f9f9" stroke-width="1"/><path d="M364.96302,146.91245c4.55762,-7.17586 6.94959,-15.09516 7.17586,-23.7579c0.09698,-3.87882 -0.11313,-6.48086 -0.63031,-7.80613c-0.48484,-1.32527 -1.47074,-2.00407 -2.9576,-2.03641c-1.48689,-0.06464 -2.84446,0.63031 -4.07278,2.08486c-1.19598,1.42225 -2.35962,3.31319 -3.49096,5.67281c-3.00609,6.20614 -4.62226,13.17188 -4.84853,20.89725c-0.12928,5.97987 0.90507,9.05061 3.10307,9.21223c1.93943,0.06465 3.84652,-1.35757 5.7213,-4.26672zM348.09006,142.93658c0.32325,-8.92132 2.16569,-16.59819 5.52734,-23.0306c1.45456,-2.84446 2.65053,-4.89702 3.58794,-6.15765c0.93737,-1.29296 2.06872,-2.56974 3.39399,-3.83037c2.74752,-2.61823 6.06066,-3.89501 9.93952,-3.83037c3.32934,0.16163 5.91523,1.82629 7.75768,4.99401c1.3576,2.16569 1.93943,5.78595 1.74547,10.86075c-0.16163,5.0425 -1.01821,9.98801 -2.56974,14.83655c-1.5192,4.81623 -3.23235,8.84052 -5.13944,12.07291c-3.81418,6.36776 -8.6789,9.45465 -14.59413,9.26072c-2.1657,-0.09708 -4.12127,-1.0183 -5.86674,-2.76367c-1.16364,-1.099 -2.11721,-2.71521 -2.86065,-4.84857c-0.71111,-2.16566 -1.0182,-4.68691 -0.92122,-7.56372z" fill="#f9f9f9" stroke-width="1"/><path d="M115.02091,129.38188l-9.06679,15.27293c-2.13335,3.65258 -4.2829,6.36776 -6.44856,8.14556c-2.16569,1.77781 -4.08894,2.66669 -5.76976,2.66669h-0.58185c-2.03638,0 -3.6364,-1.11515 -4.80004,-3.34549c-1.16367,-2.26264 -1.26066,-5.18794 -0.29094,-8.77588l10.13345,-36.94593c0.19397,-0.90507 0.72729,-1.35761 1.60003,-1.35761h5.13944c0.35559,0 0.63035,0.19393 0.82428,0.58182c0.22627,0.38789 0.22627,0.98587 0,1.79396l-10.0365,34.42468c-0.6788,2.71518 -0.58182,4.12127 0.29095,4.21825c0.96971,0.09688 2.6182,-1.60012 4.94552,-5.09099c2.32732,-3.52327 6.20613,-10.23043 11.63652,-20.12146c5.43036,-9.89103 8.22637,-14.91738 8.38799,-15.079c0.16152,-0.19393 0.29082,-0.3394 0.38786,-0.43638c0.12932,-0.09695 0.29094,-0.16159 0.48487,-0.19393c0.19397,-0.06464 0.32325,-0.09698 0.3879,-0.09698h4.46064c0.38789,0 0.71111,0.2586 0.96972,0.77578c0.29091,0.48484 0.33936,1.08284 0.1453,1.79395l-12.02442,45.28546c-0.16152,0.90503 -0.38779,1.56769 -0.67877,1.98789c-0.25861,0.38789 -0.69495,0.58182 -1.30911,0.58182h-4.07278c-0.84042,0 -1.38991,-0.19393 -1.64852,-0.58182c-0.22627,-0.38789 -0.21015,-1.14749 0.04832,-2.27883z" fill="#f9f9f9" stroke-width="1"/><path d="M374.27438,155.00496c7.43442,-9.0506 13.43048,-16.69514 17.98811,-22.93363c-1.64851,-6.8203 -3.57175,-13.94766 -5.76979,-21.38209c-0.87273,-2.42427 -0.33937,-3.6364 1.60002,-3.6364h2.76367c1.45456,0 2.40812,0.7596 2.86065,2.27883c1.71316,5.97987 3.21621,11.52339 4.50916,16.63053c3.00609,-4.49298 5.64047,-8.64656 7.90312,-12.46077c2.26265,-3.81418 3.45862,-5.78595 3.58794,-5.91523c0.35555,-0.35555 1.08285,-0.53333 2.18185,-0.53333h3.39398c1.77781,0 1.9394,1.17983 0.48484,3.53945c-3.52326,6.04452 -8.74354,13.85068 -15.66079,23.4185c1.5192,6.65867 2.86062,13.78603 4.02429,21.38208c0.19396,1.29296 -0.32322,1.98792 -1.55154,2.08487l-3.00612,0.29094c-0.93737,0.12932 -1.56769,0.00003 -1.89094,-0.38786c-0.32322,-0.38789 -0.64646,-1.27678 -0.96971,-2.66672c-0.71111,-4.55763 -1.56768,-9.27686 -2.5697,-14.15774c-5.13945,6.52936 -8.30719,10.50516 -9.50317,11.9274c-1.16364,1.42225 -1.87475,2.31116 -2.13336,2.66672c-0.25858,0.32322 -0.43635,0.53333 -0.53333,0.63031c-0.06464,0.09688 -0.22627,0.27466 -0.48484,0.53333c-0.22627,0.22627 -0.42023,0.38789 -0.58185,0.48487c-0.12932,0.09688 -0.32325,0.20998 -0.58183,0.33937c-0.45254,0.22627 -0.98586,0.3394 -1.60002,0.3394h-2.86061c-0.93741,0 -1.55154,-0.27475 -1.84244,-0.82424c-0.32325,-0.54949 -0.24249,-1.099 0.24228,-1.64852z" fill="#f9f9f9" stroke-width="1"/><path d="M275.06455,105.28726c0,0 0.50102,0 1.50304,0c2.23034,0 4.29905,0.85658 6.20614,2.56974c1.93943,1.71316 3.50712,3.84651 4.7031,6.40007c0.22627,0.4202 0.29091,0.96971 0.19396,1.64852c-0.06464,0.67877 -0.35555,1.17979 -0.87273,1.50305l-2.9576,1.69697c-0.54951,0.4202 -1.11518,0.59801 -1.697,0.53337c-0.58182,-0.06464 -0.96972,-0.29091 -1.16365,-0.6788c-0.19396,-0.38789 -0.51722,-1.11515 -0.96972,-2.18184c-0.45254,-1.06669 -0.84042,-1.84244 -1.16364,-2.32732c-0.29091,-0.51718 -0.80809,-1.06667 -1.55154,-1.64849c-0.71114,-0.61416 -1.51923,-0.96971 -2.42427,-1.06669c-1.61621,0.32325 -3.16775,1.42225 -4.65461,3.297c-1.45456,1.87479 -2.18185,4.49298 -2.18185,7.85466c0,1.45455 0.3394,2.47276 1.01817,3.05458c0.67881,0.58182 1.92327,1.05052 3.73338,1.4061l2.81216,0.58182c4.04048,0.87273 6.0607,4.21825 6.0607,10.03651c0,3.42629 -1.30912,7.40209 -3.92735,11.9274c-1.26063,2.13335 -2.9576,3.92735 -5.09096,5.3819c-2.10105,1.45455 -4.39603,2.18185 -6.88494,2.18185h-0.6788c-2.52125,0 -4.78389,-0.87273 -6.78796,-2.61823c-1.97173,-1.77781 -3.34548,-3.57175 -4.12127,-5.38187c-0.80809,-1.84248 -0.82431,-3.21624 -0.04866,-4.12127l2.18185,-1.79395c0.71114,-0.67881 1.45459,-0.96972 2.23034,-0.87277c0.77575,0.06465 1.29293,0.6465 1.55154,1.7455c0.29091,1.099 1.099,2.40808 2.42427,3.92731c1.3576,1.51923 2.60208,2.32731 3.73338,2.42426c2.00407,-0.32322 3.73341,-1.48685 5.18797,-3.49092c1.45456,-2.03641 2.18185,-4.34754 2.18185,-6.93344c0,-2.61819 -0.2586,-4.29905 -0.77578,-5.0425c-0.51718,-0.74345 -1.61618,-1.30909 -3.297,-1.69698l-2.18185,-0.48487c-2.61823,-0.61416 -4.46067,-1.68082 -5.52733,-3.20005c-1.03436,-1.51919 -1.55154,-3.60406 -1.55154,-6.2546c0,-2.68287 0.69495,-5.4627 2.08486,-8.3395c1.38991,-2.87683 3.24851,-5.26877 5.57583,-7.17585c2.32732,-1.90709 4.7031,-2.86065 7.12736,-2.86065z" fill="#f9f9f9" stroke-width="1"/><path d="M304.10409,105.40301c0,0 0.50102,0 1.50304,0c2.23034,0 4.29905,0.85658 6.20614,2.56974c1.93943,1.71316 3.50711,3.84651 4.7031,6.40007c0.22627,0.4202 0.29091,0.96971 0.19396,1.64852c-0.06464,0.67877 -0.35555,1.17979 -0.87273,1.50305l-2.9576,1.69697c-0.54951,0.4202 -1.11519,0.59801 -1.69701,0.53337c-0.58182,-0.06464 -0.96971,-0.29092 -1.16364,-0.67881c-0.19396,-0.38789 -0.51721,-1.11515 -0.96971,-2.18184c-0.45254,-1.06669 -0.84043,-1.84244 -1.16365,-2.32732c-0.29091,-0.51718 -0.80809,-1.06667 -1.55154,-1.64848c-0.71114,-0.61416 -1.51923,-0.96972 -2.42426,-1.0667c-1.61621,0.32325 -3.16775,1.42225 -4.65461,3.297c-1.45456,1.87479 -2.18185,4.49298 -2.18185,7.85465c0,1.45455 0.3394,2.47276 1.01817,3.05458c0.67881,0.58182 1.92327,1.05051 3.73338,1.40609l2.81216,0.58182c4.04048,0.87273 6.0607,4.21825 6.0607,10.0365c0,3.42629 -1.30912,7.40209 -3.92735,11.92741c-1.26063,2.13335 -2.9576,3.92734 -5.09096,5.3819c-2.10105,1.45455 -4.39603,2.18185 -6.88494,2.18185h-0.67881c-2.52125,0 -4.78389,-0.87273 -6.78796,-2.61823c-1.97173,-1.77781 -3.34549,-3.57175 -4.12128,-5.38186c-0.80809,-1.84248 -0.8243,-3.21624 -0.04865,-4.12127l2.18185,-1.79396c0.71114,-0.67881 1.45459,-0.96972 2.23034,-0.87277c0.77575,0.06465 1.29293,0.6465 1.55154,1.7455c0.29091,1.099 1.099,2.40808 2.42426,3.92731c1.3576,1.51923 2.60208,2.32732 3.73338,2.42427c2.00407,-0.32322 3.73341,-1.48686 5.18797,-3.49093c1.45456,-2.03641 2.18185,-4.34754 2.18185,-6.93343c0,-2.61819 -0.25861,-4.29905 -0.77579,-5.0425c-0.51718,-0.74345 -1.61618,-1.30909 -3.297,-1.69698l-2.18185,-0.48487c-2.61823,-0.61416 -4.46067,-1.68082 -5.52733,-3.20005c-1.03436,-1.51919 -1.55154,-3.60406 -1.55154,-6.2546c0,-2.68287 0.69495,-5.46269 2.08486,-8.33949c1.38991,-2.87683 3.24851,-5.26877 5.57583,-7.17585c2.32732,-1.90709 4.7031,-2.86065 7.12736,-2.86065z" fill="#f9f9f9" stroke-width="1"/><path d="M337.77347,83.13849c0,0 -2.8768,11.29713 -8.6304,33.89135l1.50305,-2.52125c1.38991,-2.29498 2.97378,-4.26671 4.75158,-5.91523c1.77781,-1.68082 3.23235,-2.52125 4.3637,-2.52125h0.19393c0.51718,0 1.34141,0.3879 2.47276,1.16365c1.13134,0.74344 2.21419,1.76165 3.24855,3.05458c1.06669,1.26063 1.81014,2.56973 2.23033,3.92734c0.42019,1.35757 0.35556,4.12125 -0.19393,8.29101c-0.51718,4.16976 -2.08487,9.74559 -4.7031,16.72748c-2.61823,6.94959 -5.18793,11.58801 -7.70918,13.91532c-2.52125,2.29498 -5.70511,3.44247 -9.55163,3.44247c-2.23034,0 -4.33136,-0.59798 -6.30312,-1.79396c-0.51718,0.93738 -1.42225,1.40607 -2.71518,1.40607h-1.697c-1.19598,0 -2.03638,-0.29091 -2.52125,-0.87273c-0.45254,-0.61416 -0.56567,-1.38992 -0.3394,-2.32729l18.18204,-69.96454c0.38789,-1.45455 1.37375,-2.18184 2.95759,-2.18184h2.27883c1.81014,0 2.5374,0.7596 2.18184,2.27882zM320.9975,149.22415c3.23235,1.84244 5.8021,2.13336 7.70918,0.87274c1.90709,-1.29296 3.73338,-3.86267 5.47885,-7.70918c2.97379,-6.43241 5.0263,-12.78402 6.15764,-19.05481c0.51718,-2.77982 0.7273,-4.75156 0.63032,-5.91523c-0.09698,-1.19598 -0.58183,-2.03637 -1.45456,-2.52124c-0.87273,-0.48484 -2.03637,-0.14544 -3.49096,1.0182c-1.45456,1.16365 -2.97379,2.92529 -4.55763,5.28491c-1.55154,2.35962 -3.10307,5.49503 -4.65461,9.40619c-1.5192,3.91116 -3.36164,9.82639 -5.52733,17.74569z" fill="#f9f9f9" stroke-width="1"/><path d="M445.14104,97.03544c0,3.02864 -3.17518,8.88213 -9.22565,12.5372c-7.5115,4.53767 -15.9299,7.18704 -15.9299,7.18704c0,0 5.71718,-11.79216 5.71718,-18.5808c0,-6.78864 3.97589,-12.86364 10.29091,-12.86364c6.31502,0 9.14747,4.93156 9.14747,11.7202z" fill="#c5c5c5" stroke-width="0"/><path d="M445.84468,125.15968c-1.42162,1.6636 -5.91325,3.38844 -10.95234,2.55609c-6.25589,-1.03334 -12.12359,-3.52961 -12.12359,-3.52961c0,0 8.67548,-3.79368 11.86199,-7.52257c3.18651,-3.72889 8.22196,-5.19957 11.69071,-2.23537c3.46875,2.9642 2.70975,7.00256 -0.47677,10.73145z" fill="#565656" stroke-width="0"/></g></g></svg>