<svg version="1.1" xmlns="http://www.w3.org/2000/svg" xmlns:xlink="http://www.w3.org/1999/xlink" width="400.39701" height="77.37722" viewBox="0,0,400.39701,77.37722"><g transform="translate(-48.20311,-80.74391)"><g data-paper-data="{&quot;isPaintingLayer&quot;:true}" fill-rule="nonzero" stroke="none" stroke-linecap="butt" stroke-linejoin="miter" stroke-miterlimit="10" stroke-dasharray="" stroke-dashoffset="0" style="mix-blend-mode: normal"><g><path d="M71.99783,88.9849c0,0 -5.02631,19.66893 -15.07897,59.00682c0.58182,0.06464 2.10105,0.09698 4.55762,0.09698c4.16976,0 8.03243,-2.40811 11.58804,-7.22434c3.55561,-4.81623 6.41626,-11.34559 8.58192,-19.58813c3.00609,-11.63653 3.2162,-20.16995 0.63031,-25.60031c-0.35555,-0.74345 -0.80809,-1.58387 -1.35761,-2.52125c-1.61618,-2.61823 -4.58996,-4.00814 -8.92132,-4.16976zM63.8038,89.22732l-5.09099,0.58182c-1.26062,0 -1.79396,-0.7596 -1.60003,-2.27883l0.38789,-2.81216c0.16162,-1.03436 0.72726,-1.66467 1.69697,-1.89094c2.65053,-0.51718 6.41626,-0.77575 11.29713,-0.77575c6.78796,0 11.91125,1.82629 15.36991,5.47885c3.45862,3.65259 5.33341,8.9375 5.62432,15.85475c0.38789,9.4385 -1.69701,19.60429 -6.25463,30.49737c-2.8445,6.75566 -6.1738,11.86276 -9.98801,15.32142c-4.23441,3.87882 -9.3577,5.81825 -15.36991,5.81825c-3.55561,0 -6.23848,-0.12929 -8.04859,-0.38789c-1.7778,-0.25861 -2.8768,-0.7596 -3.297,-1.50304c-0.4202,-0.77575 -0.43638,-1.92324 -0.04849,-3.44247z" fill="#000000" stroke-width="1"/><path d="M243.41002,113.83799c-3.20005,-1.81014 -5.7536,-2.06875 -7.66069,-0.77578c-1.90709,1.26062 -3.73338,3.79803 -5.47885,7.61224c-2.97378,6.46471 -5.0425,12.83248 -6.20614,19.10326c-0.51718,2.77985 -0.72729,4.76774 -0.63031,5.96372c0.12929,1.16364 0.63031,1.98788 1.50304,2.47276c0.87273,0.48484 2.02022,0.14544 3.44247,-1.0182c1.45455,-1.16364 2.9576,-2.92529 4.50913,-5.28492c1.58387,-2.35962 3.11922,-5.46269 4.60611,-9.30921c1.5192,-3.87882 3.49096,-10.13345 5.91523,-18.76386zM244.91307,108.26207c0.35555,-1.5192 1.11515,-2.27883 2.27883,-2.27883l2.27883,-0.09698c1.19598,0 2.03638,0.32325 2.52125,0.96971c0.48484,0.64646 0.54948,1.5192 0.19393,2.6182l-11.87895,39.7096c2.03638,-1.48686 4.07278,-3.66871 6.10916,-6.54554c0.71111,-1.03436 1.53538,-1.26062 2.47276,-0.67877l2.37578,1.60003c1.03436,0.67877 1.19598,1.50304 0.48484,2.47276c-2.68287,3.20002 -5.17178,5.67278 -7.46676,7.41827c-2.29498,1.71313 -4.99401,2.94145 -8.09708,3.68489c-0.4202,0.09688 -0.80809,0.03221 -1.16364,-0.19396c-0.32325,-0.22627 -0.53333,-0.51718 -0.63031,-0.87277l-1.89094,-5.52734c-1.03436,1.48689 -2.32729,2.94145 -3.87882,4.36369c-1.5192,1.42225 -2.84446,2.13336 -3.9758,2.13336h-0.19393c-0.51718,0 -1.34142,-0.37171 -2.47276,-1.11515c-1.099,-0.77575 -1.97173,-1.55153 -2.61823,-2.32732c-0.61416,-0.77575 -1.05051,-1.32527 -1.30911,-1.64848c-0.22627,-0.32325 -0.48484,-0.72729 -0.77575,-1.21213c-0.29091,-0.51718 -0.50103,-1.0182 -0.63031,-1.50304c-0.12929,-0.48487 -0.24242,-1.05054 -0.3394,-1.69701c-0.19393,-1.13134 -0.16162,-2.79601 0.09698,-4.99401c0.71111,-5.39805 2.37578,-11.5557 4.99401,-18.47295c2.65053,-6.94959 5.23643,-11.60419 7.75767,-13.96381c2.52125,-2.39196 5.68896,-3.58791 9.50314,-3.58791c2.23034,0 4.3152,0.58182 6.25463,1.74546z" fill="#000000" stroke-width="1"/><path d="M206.84335,83.02274c0,0 -2.8768,11.29713 -8.63041,33.89135l1.50304,-2.52125c1.38991,-2.29498 2.97378,-4.26671 4.75159,-5.91523c1.7778,-1.68082 3.23236,-2.52125 4.36369,-2.52125h0.19393c0.51718,0 1.34142,0.38789 2.47276,1.16364c1.13134,0.74345 2.21419,1.76165 3.24854,3.05458c1.06669,1.26062 1.81014,2.56974 2.23034,3.92734c0.4202,1.35757 0.35555,4.12124 -0.19393,8.29101c-0.51718,4.16976 -2.08487,9.74559 -4.7031,16.72748c-2.61823,6.94959 -5.18794,11.58801 -7.70918,13.91532c-2.52125,2.29498 -5.70511,3.44247 -9.55163,3.44247c-2.23034,0 -4.33136,-0.59797 -6.30312,-1.79396c-0.51718,0.93738 -1.42225,1.40606 -2.71518,1.40606h-1.69701c-1.19598,0 -2.03638,-0.29091 -2.52125,-0.87273c-0.45254,-0.61416 -0.56567,-1.38991 -0.3394,-2.32729l18.18204,-69.96455c0.38789,-1.45455 1.37376,-2.18185 2.9576,-2.18185h2.27883c1.81014,0 2.5374,0.7596 2.18185,2.27883zM190.06737,149.1084c3.23236,1.84245 5.8021,2.13336 7.70918,0.87273c1.90709,-1.29296 3.73338,-3.86267 5.47885,-7.70918c2.97378,-6.43241 5.02631,-12.78402 6.15765,-19.0548c0.51718,-2.77982 0.72729,-4.75155 0.63031,-5.91523c-0.09698,-1.19598 -0.58182,-2.03638 -1.45455,-2.52125c-0.87273,-0.48484 -2.03638,-0.14544 -3.49096,1.0182c-1.45455,1.16364 -2.97378,2.92529 -4.55762,5.28492c-1.55153,2.35962 -3.10307,5.49503 -4.6546,9.40619c-1.5192,3.91116 -3.36164,9.82639 -5.52734,17.74569z" fill="#000000" stroke-width="1"/><path d="M156.43566,115.82657c0,-0.58182 -0.22627,-0.87273 -0.6788,-0.87273c-0.45254,0 -1.00202,0.30706 -1.64852,0.92122c-0.61416,0.61416 -1.47074,1.69697 -2.56974,3.24851c-1.32527,1.97177 -2.8768,4.37988 -4.6546,7.22434c-1.74546,2.81216 -3.95965,6.30309 -6.64252,10.47285c-4.94552,7.69303 -8.0001,12.59006 -9.16374,14.69111c-1.16364,2.06871 -1.79396,3.18387 -1.89094,3.34549c-0.09698,0.12932 -0.19396,0.24245 -0.29091,0.3394c-0.09698,0.09688 -0.19396,0.17764 -0.29091,0.24229c-0.09698,0.06464 -0.19396,0.12932 -0.29091,0.19396c-0.09698,0.03244 -0.19396,0.06478 -0.29091,0.09698c-0.06464,0.03244 -0.14547,0.04866 -0.24242,0.04866c-1.16364,0 -2.13336,0 -2.90914,0c-1.55153,0 -2.10105,-0.85658 -1.64852,-2.56974l12.02439,-45.28549c0.03234,-0.06464 0.06464,-0.21012 0.09698,-0.43638c0.06464,-0.22627 0.09698,-0.37171 0.09698,-0.43638c0.12929,-0.45254 0.21008,-0.69496 0.24242,-0.72729c0.03234,-0.06464 0.08083,-0.16162 0.14547,-0.29091c0.06464,-0.12929 0.11313,-0.21008 0.14547,-0.24242c0.06464,-0.03234 0.14547,-0.08083 0.24242,-0.14547c0.09698,-0.09695 0.19396,-0.16159 0.29091,-0.19393c0.19393,-0.06464 0.43638,-0.09698 0.72729,-0.09698h4.07278c0.84043,0 1.37376,0.19393 1.60003,0.58182c0.25861,0.38789 0.24242,1.14749 -0.04849,2.27883l-7.41827,25.01849l10.32741,-17.06688c2.00407,-3.32934 4.21822,-5.96372 6.64252,-7.90315c2.45661,-1.93943 4.47683,-2.90914 6.0607,-2.90914h2.08487c3.65259,0 4.78389,2.84446 3.39398,8.53343l-5.13945,18.61842l9.60012,-16.43657c2.03638,-3.55561 4.23441,-6.22229 6.59403,-8.0001c2.39196,-1.81011 4.42834,-2.71518 6.10916,-2.71518h2.08487c2.81216,0 4.13743,1.35761 3.9758,4.07278c-0.06464,1.099 -0.27476,2.58589 -0.63031,4.46064l-11.10316,40.48538c-0.19393,0.93738 -0.72729,1.40606 -1.60003,1.40606h-5.13948c-0.35555,0 -0.64646,-0.19393 -0.87273,-0.58182c-0.19393,-0.38789 -0.17778,-0.98587 0.04849,-1.79396l10.42436,-34.08528c0.48484,-1.7455 0.72729,-2.90914 0.72729,-3.49096c0,-0.58182 -0.25857,-0.87273 -0.77575,-0.87273c-0.48484,0 -1.26062,0.63031 -2.32729,1.89094c-1.06669,1.22829 -2.69903,3.6041 -4.89703,7.12736c-2.16569,3.49096 -4.42834,7.07887 -6.78796,10.76376c-2.32732,3.65255 -3.9435,6.20614 -4.84853,7.66069c-2.90914,4.68694 -5.10714,8.67893 -6.59403,11.97593c-0.38789,0.93738 -0.95356,1.40606 -1.69701,1.40606h-5.0425c-0.80809,0 -1.06669,-0.79194 -0.77575,-2.37578l10.42436,-34.08528c0.48484,-1.7455 0.72729,-2.90914 0.72729,-3.49096z" fill="#000000" stroke-width="1"/><path d="M364.96302,146.91245c4.55762,-7.17585 6.94959,-15.09515 7.17585,-23.7579c0.09698,-3.87882 -0.11313,-6.48087 -0.63031,-7.80613c-0.48484,-1.32527 -1.47074,-2.00407 -2.9576,-2.03641c-1.48689,-0.06464 -2.84446,0.63031 -4.07278,2.08487c-1.19598,1.42225 -2.35962,3.31319 -3.49096,5.67281c-3.00609,6.20614 -4.62227,13.17188 -4.84853,20.89725c-0.12929,5.97987 0.90507,9.0506 3.10307,9.21223c1.93943,0.06464 3.84652,-1.35757 5.7213,-4.26671zM348.09006,142.93658c0.32325,-8.92132 2.16569,-16.5982 5.52734,-23.0306c1.45455,-2.84446 2.65053,-4.89703 3.58794,-6.15765c0.93738,-1.29296 2.06871,-2.56974 3.39398,-3.83036c2.74752,-2.61823 6.06067,-3.89501 9.93952,-3.83036c3.32934,0.16162 5.91523,1.82629 7.75767,4.99401c1.35761,2.16569 1.93943,5.78594 1.74546,10.86074c-0.16162,5.0425 -1.0182,9.98801 -2.56974,14.83655c-1.5192,4.81623 -3.23236,8.84052 -5.13945,12.07291c-3.81418,6.36776 -8.6789,9.45465 -14.59413,9.26072c-2.16569,-0.09708 -4.12127,-1.0183 -5.86674,-2.76367c-1.16364,-1.099 -2.1172,-2.71521 -2.86065,-4.84857c-0.71111,-2.16566 -1.0182,-4.68691 -0.92122,-7.56371z" fill="#000000" stroke-width="1"/><path d="M115.02091,129.38188l-9.06679,15.27293c-2.13336,3.65259 -4.2829,6.36776 -6.44856,8.14557c-2.16569,1.7778 -4.08894,2.66669 -5.76976,2.66669h-0.58185c-2.03638,0 -3.6364,-1.11515 -4.80004,-3.34549c-1.16368,-2.26264 -1.26066,-5.18794 -0.29094,-8.77588l10.13345,-36.94593c0.19396,-0.90507 0.72729,-1.35761 1.60003,-1.35761h5.13945c0.35559,0 0.63035,0.19393 0.82427,0.58182c0.22627,0.38789 0.22627,0.98587 0,1.79396l-10.0365,34.42468c-0.6788,2.71518 -0.58182,4.12127 0.29094,4.21826c0.96971,0.09688 2.6182,-1.60012 4.94552,-5.09099c2.32732,-3.52327 6.20614,-10.23043 11.63653,-20.12146c5.43036,-9.89103 8.22636,-14.91738 8.38799,-15.079c0.16153,-0.19393 0.29081,-0.3394 0.38786,-0.43638c0.12932,-0.09695 0.29094,-0.16159 0.48487,-0.19393c0.19396,-0.06464 0.32325,-0.09698 0.38789,-0.09698h4.46064c0.38789,0 0.71111,0.25861 0.96971,0.77578c0.29091,0.48484 0.33937,1.08285 0.14531,1.79396l-12.02442,45.28546c-0.16153,0.90504 -0.38779,1.56769 -0.67877,1.98788c-0.25861,0.38789 -0.69496,0.58182 -1.30911,0.58182h-4.07278c-0.84043,0 -1.38991,-0.19393 -1.64852,-0.58182c-0.22627,-0.38789 -0.21015,-1.14749 0.04833,-2.27883z" fill="#000000" stroke-width="1"/><path d="M374.27438,155.00496c7.43443,-9.0506 13.43048,-16.69515 17.98811,-22.93362c-1.64852,-6.8203 -3.57176,-13.94766 -5.76979,-21.38209c-0.87273,-2.42427 -0.33937,-3.6364 1.60003,-3.6364h2.76367c1.45455,0 2.40811,0.7596 2.86065,2.27883c1.71316,5.97987 3.2162,11.5234 4.50917,16.63054c3.00609,-4.49298 5.64047,-8.64656 7.90311,-12.46077c2.26264,-3.81418 3.45862,-5.78594 3.58794,-5.91523c0.35555,-0.35555 1.08285,-0.53333 2.18185,-0.53333h3.39398c1.7778,0 1.93939,1.17983 0.48484,3.53945c-3.52327,6.04452 -8.74354,13.85068 -15.66079,23.4185c1.5192,6.65868 2.86062,13.78604 4.02429,21.38209c0.19396,1.29296 -0.32322,1.98792 -1.55153,2.08487l-3.00612,0.29094c-0.93738,0.12932 -1.56769,0.00003 -1.89094,-0.38786c-0.32322,-0.38789 -0.64646,-1.27678 -0.96971,-2.66672c-0.71111,-4.55762 -1.56769,-9.27687 -2.56971,-14.15774c-5.13945,6.52936 -8.30719,10.50516 -9.50317,11.92741c-1.16364,1.42225 -1.87475,2.31117 -2.13336,2.66672c-0.25857,0.32322 -0.43635,0.53333 -0.53333,0.63031c-0.06464,0.09688 -0.22627,0.27466 -0.48484,0.53333c-0.22627,0.22627 -0.42023,0.38789 -0.58185,0.48487c-0.12932,0.09688 -0.32325,0.20998 -0.58182,0.33937c-0.45254,0.22627 -0.98587,0.3394 -1.60003,0.3394h-2.86062c-0.93741,0 -1.55153,-0.27476 -1.84245,-0.82424c-0.32325,-0.54948 -0.24249,-1.099 0.24229,-1.64852z" fill="#000000" stroke-width="1"/><path d="M275.06455,105.28726c0,0 0.50103,0 1.50304,0c2.23034,0 4.29905,0.85658 6.20614,2.56974c1.93943,1.71316 3.50711,3.84652 4.7031,6.40007c0.22627,0.4202 0.29091,0.96971 0.19396,1.64852c-0.06464,0.67877 -0.35555,1.1798 -0.87273,1.50304l-2.9576,1.69697c-0.54952,0.4202 -1.11519,0.59801 -1.69701,0.53336c-0.58182,-0.06464 -0.96971,-0.29091 -1.16364,-0.6788c-0.19396,-0.38789 -0.51721,-1.11515 -0.96971,-2.18185c-0.45254,-1.06669 -0.84043,-1.84245 -1.16364,-2.32732c-0.29091,-0.51718 -0.80809,-1.06666 -1.55153,-1.64848c-0.71114,-0.61416 -1.51923,-0.96971 -2.42427,-1.06669c-1.61621,0.32325 -3.16775,1.42225 -4.6546,3.297c-1.45455,1.87478 -2.18185,4.49298 -2.18185,7.85466c0,1.45455 0.3394,2.47276 1.01817,3.05458c0.6788,0.58182 1.92327,1.05051 3.73338,1.4061l2.81216,0.58182c4.04048,0.87273 6.0607,4.21826 6.0607,10.0365c0,3.42629 -1.30911,7.40209 -3.92734,11.92741c-1.26062,2.13336 -2.9576,3.92734 -5.09095,5.3819c-2.10105,1.45455 -4.39603,2.18185 -6.88494,2.18185h-0.6788c-2.52125,0 -4.78389,-0.87273 -6.78796,-2.61823c-1.97173,-1.7778 -3.34549,-3.57176 -4.12127,-5.38187c-0.80809,-1.84248 -0.82431,-3.21624 -0.04866,-4.12127l2.18185,-1.79396c0.71114,-0.6788 1.45459,-0.96971 2.23034,-0.87277c0.77575,0.06464 1.29293,0.6465 1.55153,1.7455c0.29091,1.099 1.099,2.40808 2.42427,3.92731c1.35761,1.51923 2.60208,2.32732 3.73338,2.42427c2.00407,-0.32322 3.73342,-1.48686 5.18797,-3.49093c1.45455,-2.03641 2.18185,-4.34754 2.18185,-6.93343c0,-2.6182 -0.25861,-4.29905 -0.77578,-5.0425c-0.51718,-0.74345 -1.61618,-1.30908 -3.297,-1.69697l-2.18185,-0.48487c-2.61823,-0.61416 -4.46068,-1.68082 -5.52734,-3.20005c-1.03436,-1.5192 -1.55153,-3.60406 -1.55153,-6.2546c0,-2.68287 0.69496,-5.46269 2.08487,-8.3395c1.38991,-2.87684 3.24851,-5.26876 5.57583,-7.17585c2.32732,-1.90709 4.7031,-2.86065 7.12736,-2.86065z" fill="#000000" stroke-width="1"/><path d="M304.10409,105.40301c0,0 0.50103,0 1.50304,0c2.23034,0 4.29905,0.85658 6.20614,2.56974c1.93943,1.71316 3.50711,3.84652 4.7031,6.40007c0.22627,0.4202 0.29091,0.96971 0.19396,1.64852c-0.06464,0.67877 -0.35555,1.1798 -0.87273,1.50304l-2.9576,1.69697c-0.54952,0.4202 -1.11519,0.59801 -1.69701,0.53336c-0.58182,-0.06464 -0.96971,-0.29091 -1.16364,-0.6788c-0.19396,-0.38789 -0.51721,-1.11515 -0.96971,-2.18185c-0.45254,-1.06669 -0.84043,-1.84245 -1.16364,-2.32732c-0.29091,-0.51718 -0.80809,-1.06666 -1.55153,-1.64848c-0.71114,-0.61416 -1.51923,-0.96971 -2.42427,-1.06669c-1.61621,0.32325 -3.16775,1.42225 -4.6546,3.297c-1.45455,1.87478 -2.18185,4.49298 -2.18185,7.85466c0,1.45455 0.3394,2.47276 1.01817,3.05458c0.6788,0.58182 1.92327,1.05051 3.73338,1.4061l2.81216,0.58182c4.04048,0.87273 6.0607,4.21826 6.0607,10.0365c0,3.42629 -1.30911,7.40209 -3.92734,11.92741c-1.26062,2.13336 -2.9576,3.92734 -5.09095,5.3819c-2.10105,1.45455 -4.39603,2.18185 -6.88494,2.18185h-0.6788c-2.52125,0 -4.78389,-0.87273 -6.78796,-2.61823c-1.97173,-1.7778 -3.34549,-3.57176 -4.12127,-5.38187c-0.80809,-1.84248 -0.82431,-3.21624 -0.04866,-4.12127l2.18185,-1.79396c0.71114,-0.6788 1.45459,-0.96971 2.23034,-0.87277c0.77575,0.06464 1.29293,0.6465 1.55153,1.7455c0.29091,1.099 1.099,2.40808 2.42427,3.92731c1.35761,1.51923 2.60208,2.32732 3.73338,2.42427c2.00407,-0.32322 3.73342,-1.48686 5.18797,-3.49093c1.45455,-2.03641 2.18185,-4.34754 2.18185,-6.93343c0,-2.6182 -0.25861,-4.29905 -0.77578,-5.0425c-0.51718,-0.74345 -1.61618,-1.30908 -3.297,-1.69697l-2.18185,-0.48487c-2.61823,-0.61416 -4.46068,-1.68082 -5.52734,-3.20005c-1.03436,-1.5192 -1.55153,-3.60406 -1.55153,-6.2546c0,-2.68287 0.69496,-5.46269 2.08487,-8.3395c1.38991,-2.87684 3.24851,-5.26876 5.57583,-7.17585c2.32732,-1.90709 4.7031,-2.86065 7.12736,-2.86065z" fill="#000000" stroke-width="1"/><path d="M337.77347,83.13849c0,0 -2.8768,11.29713 -8.63041,33.89135l1.50304,-2.52125c1.38991,-2.29498 2.97378,-4.26671 4.75159,-5.91523c1.7778,-1.68082 3.23236,-2.52125 4.36369,-2.52125h0.19393c0.51718,0 1.34142,0.38789 2.47276,1.16364c1.13134,0.74345 2.21419,1.76165 3.24854,3.05458c1.06669,1.26062 1.81014,2.56974 2.23034,3.92734c0.4202,1.35757 0.35555,4.12124 -0.19393,8.29101c-0.51718,4.16976 -2.08487,9.74559 -4.7031,16.72748c-2.61823,6.94959 -5.18794,11.58801 -7.70918,13.91532c-2.52125,2.29498 -5.70511,3.44247 -9.55163,3.44247c-2.23034,0 -4.33136,-0.59797 -6.30312,-1.79396c-0.51718,0.93738 -1.42225,1.40606 -2.71518,1.40606h-1.69701c-1.19598,0 -2.03638,-0.29091 -2.52125,-0.87273c-0.45254,-0.61416 -0.56567,-1.38991 -0.3394,-2.32729l18.18204,-69.96455c0.38789,-1.45455 1.37376,-2.18185 2.9576,-2.18185h2.27883c1.81014,0 2.5374,0.7596 2.18185,2.27883zM320.9975,149.22415c3.23236,1.84245 5.8021,2.13336 7.70918,0.87273c1.90709,-1.29296 3.73338,-3.86267 5.47885,-7.70918c2.97378,-6.43241 5.02631,-12.78402 6.15765,-19.0548c0.51718,-2.77982 0.72729,-4.75155 0.63031,-5.91523c-0.09698,-1.19598 -0.58182,-2.03638 -1.45455,-2.52125c-0.87273,-0.48484 -2.03638,-0.14544 -3.49096,1.0182c-1.45455,1.16364 -2.97378,2.92529 -4.55762,5.28492c-1.55153,2.35962 -3.10307,5.49503 -4.6546,9.40619c-1.5192,3.91116 -3.36164,9.82639 -5.52734,17.74569z" fill="#000000" stroke-width="1"/><path d="M444.64103,97.03544c0,3.02865 -3.17518,8.88213 -9.22565,12.5372c-7.5115,4.53766 -15.9299,7.18704 -15.9299,7.18704c0,0 5.71718,-11.79216 5.71718,-18.5808c0,-6.78864 3.97588,-12.86364 10.29091,-12.86364c6.31502,0 9.14747,4.93156 9.14747,11.7202z" fill="#565656" stroke-width="0"/><path d="M445.84468,125.15968c-1.42162,1.66359 -5.91326,3.38844 -10.95235,2.55609c-6.25589,-1.03335 -12.12359,-3.52961 -12.12359,-3.52961c0,0 8.67547,-3.79367 11.86199,-7.52257c3.18651,-3.7289 8.22196,-5.19957 11.69071,-2.23537c3.46875,2.9642 2.70975,7.00256 -0.47676,10.73146z" fill="#c5c5c5" stroke-width="0"/></g></g></g></svg>